<svg xmlns="http://www.w3.org/2000/svg" viewBox="0 0 128 128"><path d="M116.73 31.83a3 3 0 0 0-4.2-.61l-48.39 36.12a1 1 0 0 1-1.2 0l-47.44-36.28a3 3 0 1 0-3.64 4.77l37.3 28.53-36.89 27.8a3 3 0 1 0 3.61 4.84l38.23-28.86 5.18 4a7 7 0 0 0 8.43.06l5.44-4.06 38.68 28.86a3 3 0 1 0 3.59-4.81l-37.26-27.84 37.95-28.35a3 3 0 0 0 .61-4.17Z"/><path d="M113 19h-98a15 15 0 0 0-15 15v60a15 15 0 0 0 15 15h98a15 15 0 0 0 15-15v-60a15 15 0 0 0-15-15Zm9 75a9 9 0 0 1-9 9h-98a9 9 0 0 1-9-9v-60a9 9 0 0 1 9-9h98a9 9 0 0 1 9 9Z"/></svg>