<svg xmlns="http://www.w3.org/2000/svg" viewBox="0 0 654.758 654.758" style="enable-background:new 0 0 654.758 654.758" xml:space="preserve"><path d="m443.4 75.36 17.51-29.44a14.46 14.46 0 0 1 19.87-5.6 14.46 14.46 0 0 1 5.6 19.88l-17.52 29.44c-2.35 4.78-7.95 7.13-12.73 7.13-2.36 0-4.78-.8-7.14-1.61-7.21-3.9-9.57-12.59-5.6-19.8zm-257.5 14.35c2.35 4.78 7.94 7.14 12.73 7.14 2.35 0 4.78-.81 7.14-1.62a14.46 14.46 0 0 0 5.59-19.87l-17.52-29.44c-3.97-7.14-12.73-9.56-19.87-5.59s-9.56 12.73-5.59 19.87l17.52 29.51zm141.44-27a14.2 14.2 0 0 0 14.28-14.29v-34.14a14.2 14.2 0 0 0-14.28-14.28 14.2 14.2 0 0 0-14.27 14.28v34.14c-.81 7.88 5.51 14.28 14.27 14.28zm-257.5 228.06h-34.15a14.2 14.2 0 0 0-14.27 14.27 14.2 14.2 0 0 0 14.27 14.28h34.15c7.95 0 14.28-6.33 14.28-14.28s-6.33-14.27-14.28-14.27zm549.23 0h-34.15a14.2 14.2 0 0 0-14.28 14.27 14.2 14.2 0 0 0 14.28 14.28h34.15c7.94 0 14.27-6.33 14.27-14.28s-6.33-14.27-14.27-14.27zm-26.28-138.28a14.46 14.46 0 0 0-19.87-5.6l-29.43 17.52a14.46 14.46 0 0 0-5.6 19.87c2.36 4.78 7.95 7.14 12.73 7.14 2.36 0 4.79-.81 7.14-1.62l29.44-17.52c7.21-3.9 9.57-12.66 5.6-19.8zm-77.86 151c0 32.61-8.76 64.4-24.65 93.03-.81 2.35-1.62 3.97-3.17 5.6l-1.62 2.35c-6.33 9.56-12.73 19.06-20.68 27-27.82 38.94-42.1 72.35-41.36 93.77v.8c0 1.62.81 3.98.81 6.33v68.37c0 30.17-24.65 54.02-54.01 54.02h-88.17c-30.17 0-54.01-24.65-54.01-54.02v-75.5c.8-20.68-13.54-53.29-39.74-91.4-8.76-9.57-17.52-19.88-23.85-31.8-.8-1.62-1.62-2.35-2.35-3.97a186.73 186.73 0 0 1-25.47-93.76c0-104.14 85.08-189.14 189.14-189.14 104.06-.8 189.13 84.2 189.13 188.33zm-120.03 236.83h-137.47v27h137.47v-27zm0 62.04v-5.6h-137.47v5.6c1.62 12.73 11.92 22.22 24.65 22.22h88.24c12.66 0 23.04-9.49 24.58-22.22zm90.6-298.86c0-88.24-71.54-159.77-159.78-159.77s-159.77 71.53-159.77 159.77c0 28.63 7.95 56.44 22.23 81.1v.8a192.6 192.6 0 0 0 21.49 28.64l1.62 1.61c26.2 37.39 41.35 69.18 45.33 95.38h139.09c4.78-32.6 27-69.91 46.88-97.73 0-.81.8-.81 1.62-1.62a108.12 108.12 0 0 0 18.25-24.65c0-.81.8-.81.8-1.62s.82-.81.82-1.62c14.28-23.85 21.41-51.66 21.41-80.3zm-374.3-139.1-29.44-17.5c-7.14-3.98-15.9-1.63-19.87 5.58-3.97 7.14-1.62 15.9 5.6 19.87l29.43 17.52c2.36 1.62 4.79 1.62 7.14 1.62 4.79 0 10.3-2.36 12.73-7.14 3.9-7.21 1.55-15.97-5.6-19.94z"/></svg>
