<svg xmlns="http://www.w3.org/2000/svg" viewBox="-145 -15 654.758 654.758">
  <path d="M374.37 289.47c0 32.61-8.76 64.4-24.65 93.03-.81 2.35-1.62 3.97-3.17 5.6l-1.62 2.35c-6.33 9.56-12.73 19.06-20.68 27-27.82 38.94-42.1 72.35-41.36 93.77v.8c0 1.62.81 3.98.81 6.33v68.37c0 30.17-24.65 54.02-54.01 54.02h-88.17c-30.17 0-54.01-24.65-54.01-54.02v-75.5c.8-20.68-13.54-53.29-39.74-91.4-8.76-9.57-17.52-19.88-23.85-31.8-.8-1.62-1.62-2.35-2.35-3.97a186.73 186.73 0 0 1-25.47-93.76c0-104.14 85.08-189.14 189.14-189.14 104.06-.8 189.13 84.2 189.13 188.33zm-120.03 236.83h-137.47v27h137.47v-27zm0 62.04v-5.6h-137.47v5.6c1.62 12.73 11.92 22.22 24.65 22.22h88.24c12.66 0 23.04-9.49 24.58-22.22zm90.6-298.86c0-88.24-71.54-159.77-159.78-159.77s-159.77 71.53-159.77 159.77c0 28.63 7.95 56.44 22.23 81.1v.8a192.6 192.6 0 0 0 21.49 28.64l1.62 1.61c26.2 37.39 41.35 69.18 45.33 95.38h139.09c4.78-32.6 27-69.91 46.88-97.73 0-.81.8-.81 1.62-1.62a108.12 108.12 0 0 0 18.25-24.65c0-.81.8-.81.8-1.62s.82-.81.82-1.62c14.28-23.85 21.41-51.66 21.41-80.3z"/>
</svg>
